<?xml version="1.0" encoding="UTF-8" standalone="no"?>
<svg
   xmlns:dc="http://purl.org/dc/elements/1.1/"
   xmlns:cc="http://creativecommons.org/ns#"
   xmlns:rdf="http://www.w3.org/1999/02/22-rdf-syntax-ns#"
   xmlns:svg="http://www.w3.org/2000/svg"
   xmlns="http://www.w3.org/2000/svg"
   viewBox="0 0 160 160"
   height="160"
   width="160"
   xml:space="preserve"
   id="svg2"
   version="1.1"><metadata
     id="metadata8"><rdf:RDF><cc:Work
         rdf:about=""><dc:format>image/svg+xml</dc:format><dc:type
           rdf:resource="http://purl.org/dc/dcmitype/StillImage" /></cc:Work></rdf:RDF></metadata><defs
     id="defs6" /><g
     transform="matrix(1.3333333,0,0,-1.3333333,0,160)"
     id="g10"><g
       transform="scale(0.1)"
       id="g12"><path
         id="path16"
         style="fill:#dd4958;fill-opacity:1;fill-rule:nonzero;stroke:none"
         d="m 599.984,203.555 c -218.953,0 -396.437,177.48 -396.437,396.457 0,218.965 177.484,396.453 396.437,396.453 218.981,0 396.481,-177.488 396.481,-396.453 0,-218.977 -177.5,-396.457 -396.481,-396.457 z m 0,848.935 c -249.902,0 -452.468,-202.58 -452.468,-452.478 0,-249.895 202.566,-452.5 452.468,-452.5 249.899,0 452.496,202.605 452.496,452.5 0,249.898 -202.597,452.478 -452.496,452.478" /><path
         id="path18"
         style="fill:#dd4958;fill-opacity:1;fill-rule:nonzero;stroke:none"
         d="m 681.367,685.754 h 40.488 L 662.754,564.492 603.648,685.754 h 41.079 v 97.871 c -10.079,6.258 -27.793,10.223 -37.907,12.762 -58.199,14.582 -116.453,28.855 -174.656,43.34 -2.5,0.625 -4.781,2.168 -7.18,3.273 H 358.352 V 357.012 H 521.57 v 158.371 h -40.472 l 59.101,121.258 59.102,-121.258 H 558.203 V 413.574 c 10.567,-6.101 28.215,-7.07 41.758,-10.515 56.406,-14.407 112.93,-28.411 169.394,-42.661 2.461,-0.601 4.668,-2.234 6.993,-3.386 h 65.293 V 843 H 681.367 V 685.754" /></g></g></svg>